<svg xmlns="http://www.w3.org/2000/svg" width="23" height="23" viewBox="0 0 23 23">
  <defs>
    <g id="phone">
      <path
       d="M13.9 5C14.9 5.2 15.8 5.7 16.5 6.4 17.2 7.1 17.7 8 17.9 9M13.9 1C16 1.2 17.9 2.1 19.3 3.6 20.7 5 21.7 6.9 21.9 8.9M20.9 16.9V19.9C20.9 20.2 20.8 20.5 20.7 20.7 20.6 21 20.4 21.2 20.2 21.4 20 21.6 19.8 21.7 19.5 21.8 19.3 21.9 19 21.9 18.7 21.9 15.6 21.6 12.7 20.5 10.1 18.9 7.7 17.3 5.6 15.3 4.1 12.9 2.4 10.2 1.3 7.3 1 4.2 1 3.9 1 3.6 1.1 3.4 1.2 3.1 1.3 2.9 1.5 2.7 1.7 2.4 1.9 2.3 2.2 2.2 2.4 2.1 2.7 2 3 2H6C6.5 2 7 2.2 7.3 2.5 7.7 2.8 7.9 3.2 8 3.7 8.1 4.7 8.4 5.6 8.7 6.5 8.8 6.9 8.9 7.3 8.8 7.7 8.7 8 8.5 8.4 8.2 8.6L7 9.9C8.4 12.4 10.5 14.5 13 15.9L14.2 14.6C14.5 14.4 14.9 14.2 15.2 14.1 15.6 14 16 14.1 16.4 14.2 17.3 14.5 18.2 14.8 19.2 14.9 19.7 15 20.1 15.2 20.4 15.6 20.7 16 20.9 16.4 20.9 16.9Z"
        stroke="white"
        stroke-width="2"
        stroke-linecap="round"
        stroke-linejoin="round"
      />
    </g>
  </defs> 
  
</svg>  